<mxfile host="app.diagrams.net" modified="2024-03-04T04:52:19.460Z" agent="Mozilla/5.0 (Windows NT 10.0; Win64; x64) AppleWebKit/537.36 (KHTML, like Gecko) Chrome/122.0.0.0 Safari/537.36" etag="55dWAiaFV5aNqXEwLMGa" version="24.0.1" type="github">
  <diagram name="第 1 页" id="04GrkCOda3u9FRn1Vndo">
    <mxGraphModel dx="794" dy="492" grid="1" gridSize="10" guides="1" tooltips="1" connect="1" arrows="1" fold="1" page="1" pageScale="1" pageWidth="827" pageHeight="1169" math="0" shadow="0">
      <root>
        <mxCell id="0" />
        <mxCell id="1" parent="0" />
        <mxCell id="cvtWXRdPuCVlEjRCMvrC-1" value="" style="endArrow=classic;html=1;rounded=0;fontSize=13;fontFamily=Times New Roman;" edge="1" parent="1">
          <mxGeometry width="50" height="50" relative="1" as="geometry">
            <mxPoint x="160" y="340" as="sourcePoint" />
            <mxPoint x="760" y="340" as="targetPoint" />
          </mxGeometry>
        </mxCell>
        <mxCell id="cvtWXRdPuCVlEjRCMvrC-2" value="" style="endArrow=classic;html=1;rounded=0;fontSize=13;fontFamily=Times New Roman;" edge="1" parent="1">
          <mxGeometry width="50" height="50" relative="1" as="geometry">
            <mxPoint x="160" y="400" as="sourcePoint" />
            <mxPoint x="760" y="400" as="targetPoint" />
          </mxGeometry>
        </mxCell>
        <mxCell id="cvtWXRdPuCVlEjRCMvrC-3" value="" style="endArrow=classic;html=1;rounded=0;fontSize=13;fontFamily=Times New Roman;" edge="1" parent="1">
          <mxGeometry width="50" height="50" relative="1" as="geometry">
            <mxPoint x="160" y="440" as="sourcePoint" />
            <mxPoint x="760" y="440" as="targetPoint" />
          </mxGeometry>
        </mxCell>
        <mxCell id="cvtWXRdPuCVlEjRCMvrC-4" value="" style="endArrow=classic;html=1;rounded=0;fontSize=13;fontFamily=Times New Roman;" edge="1" parent="1">
          <mxGeometry width="50" height="50" relative="1" as="geometry">
            <mxPoint x="160" y="480" as="sourcePoint" />
            <mxPoint x="760" y="480" as="targetPoint" />
          </mxGeometry>
        </mxCell>
        <mxCell id="cvtWXRdPuCVlEjRCMvrC-6" value="" style="endArrow=classic;html=1;rounded=0;fontSize=13;fontFamily=Times New Roman;" edge="1" parent="1">
          <mxGeometry width="50" height="50" relative="1" as="geometry">
            <mxPoint x="177" y="550" as="sourcePoint" />
            <mxPoint x="727" y="550" as="targetPoint" />
          </mxGeometry>
        </mxCell>
        <mxCell id="cvtWXRdPuCVlEjRCMvrC-7" value="" style="endArrow=classic;html=1;rounded=0;fontSize=13;fontFamily=Times New Roman;" edge="1" parent="1">
          <mxGeometry width="50" height="50" relative="1" as="geometry">
            <mxPoint x="177" y="560" as="sourcePoint" />
            <mxPoint x="727" y="560" as="targetPoint" />
          </mxGeometry>
        </mxCell>
        <mxCell id="cvtWXRdPuCVlEjRCMvrC-8" value="" style="endArrow=classic;html=1;rounded=0;fontSize=13;fontFamily=Times New Roman;" edge="1" parent="1">
          <mxGeometry width="50" height="50" relative="1" as="geometry">
            <mxPoint x="177" y="570" as="sourcePoint" />
            <mxPoint x="727" y="570" as="targetPoint" />
          </mxGeometry>
        </mxCell>
        <mxCell id="cvtWXRdPuCVlEjRCMvrC-5" value="Raft Consensus Protocal and Block Creation" style="rounded=1;whiteSpace=wrap;html=1;fontSize=13;fontFamily=Times New Roman;" vertex="1" parent="1">
          <mxGeometry x="217" y="540" width="480" height="40" as="geometry" />
        </mxCell>
        <mxCell id="cvtWXRdPuCVlEjRCMvrC-9" value="&lt;font style=&quot;vertical-align: inherit; font-size: 13px;&quot;&gt;&lt;font style=&quot;vertical-align: inherit; font-size: 13px;&quot;&gt;Client&lt;/font&gt;&lt;/font&gt;" style="text;html=1;align=center;verticalAlign=middle;resizable=0;points=[];autosize=1;strokeColor=none;fillColor=none;fontSize=13;fontFamily=Times New Roman;" vertex="1" parent="1">
          <mxGeometry x="80" y="326" width="60" height="30" as="geometry" />
        </mxCell>
        <mxCell id="cvtWXRdPuCVlEjRCMvrC-10" value="&lt;font style=&quot;vertical-align: inherit; font-size: 13px;&quot;&gt;&lt;font style=&quot;vertical-align: inherit; font-size: 13px;&quot;&gt;&lt;font style=&quot;vertical-align: inherit; font-size: 13px;&quot;&gt;&lt;font style=&quot;vertical-align: inherit; font-size: 13px;&quot;&gt;Endorsing&lt;/font&gt;&lt;/font&gt;&lt;/font&gt;&lt;/font&gt;&lt;div style=&quot;font-size: 13px;&quot;&gt;&lt;font style=&quot;vertical-align: inherit; font-size: 13px;&quot;&gt;&lt;font style=&quot;vertical-align: inherit; font-size: 13px;&quot;&gt;Peer-1(EP1)&lt;/font&gt;&lt;/font&gt;&lt;/div&gt;" style="text;html=1;align=center;verticalAlign=middle;resizable=0;points=[];autosize=1;strokeColor=none;fillColor=none;fontSize=13;fontFamily=Times New Roman;" vertex="1" parent="1">
          <mxGeometry x="65" y="380" width="90" height="40" as="geometry" />
        </mxCell>
        <mxCell id="cvtWXRdPuCVlEjRCMvrC-11" value="&lt;font style=&quot;vertical-align: inherit; font-size: 13px;&quot;&gt;&lt;font style=&quot;vertical-align: inherit; font-size: 13px;&quot;&gt;&lt;font style=&quot;vertical-align: inherit; font-size: 13px;&quot;&gt;&lt;font style=&quot;vertical-align: inherit; font-size: 13px;&quot;&gt;Endorsing&lt;/font&gt;&lt;/font&gt;&lt;/font&gt;&lt;/font&gt;&lt;div style=&quot;font-size: 13px;&quot;&gt;&lt;font style=&quot;vertical-align: inherit; font-size: 13px;&quot;&gt;&lt;font style=&quot;vertical-align: inherit; font-size: 13px;&quot;&gt;Peer-2(EP2)&lt;/font&gt;&lt;/font&gt;&lt;/div&gt;" style="text;html=1;align=center;verticalAlign=middle;resizable=0;points=[];autosize=1;strokeColor=none;fillColor=none;fontSize=13;fontFamily=Times New Roman;" vertex="1" parent="1">
          <mxGeometry x="65" y="420" width="90" height="40" as="geometry" />
        </mxCell>
        <mxCell id="cvtWXRdPuCVlEjRCMvrC-12" value="&lt;font style=&quot;vertical-align: inherit; font-size: 13px;&quot;&gt;&lt;font style=&quot;vertical-align: inherit; font-size: 13px;&quot;&gt;&lt;font style=&quot;vertical-align: inherit; font-size: 13px;&quot;&gt;&lt;font style=&quot;vertical-align: inherit; font-size: 13px;&quot;&gt;Endorsing&lt;/font&gt;&lt;/font&gt;&lt;/font&gt;&lt;/font&gt;&lt;div style=&quot;font-size: 13px;&quot;&gt;&lt;font style=&quot;vertical-align: inherit; font-size: 13px;&quot;&gt;&lt;font style=&quot;vertical-align: inherit; font-size: 13px;&quot;&gt;Peer-3(EP3)&lt;/font&gt;&lt;/font&gt;&lt;/div&gt;" style="text;html=1;align=center;verticalAlign=middle;resizable=0;points=[];autosize=1;strokeColor=none;fillColor=none;fontSize=13;fontFamily=Times New Roman;" vertex="1" parent="1">
          <mxGeometry x="65" y="460" width="90" height="40" as="geometry" />
        </mxCell>
        <mxCell id="cvtWXRdPuCVlEjRCMvrC-14" value="" style="endArrow=classic;html=1;rounded=0;fontSize=13;fontFamily=Times New Roman;" edge="1" parent="1">
          <mxGeometry width="50" height="50" relative="1" as="geometry">
            <mxPoint x="180" y="340" as="sourcePoint" />
            <mxPoint x="200" y="400" as="targetPoint" />
          </mxGeometry>
        </mxCell>
        <mxCell id="cvtWXRdPuCVlEjRCMvrC-16" value="" style="endArrow=classic;html=1;rounded=0;fontSize=13;fontFamily=Times New Roman;" edge="1" parent="1">
          <mxGeometry width="50" height="50" relative="1" as="geometry">
            <mxPoint x="190" y="340" as="sourcePoint" />
            <mxPoint x="220" y="440" as="targetPoint" />
          </mxGeometry>
        </mxCell>
        <mxCell id="cvtWXRdPuCVlEjRCMvrC-17" value="" style="endArrow=classic;html=1;rounded=0;fontSize=13;fontFamily=Times New Roman;" edge="1" parent="1">
          <mxGeometry width="50" height="50" relative="1" as="geometry">
            <mxPoint x="200" y="340" as="sourcePoint" />
            <mxPoint x="240" y="480" as="targetPoint" />
          </mxGeometry>
        </mxCell>
        <mxCell id="cvtWXRdPuCVlEjRCMvrC-18" value="" style="rounded=0;whiteSpace=wrap;html=1;fontSize=13;fontFamily=Times New Roman;fillColor=#dae8fc;strokeColor=#6c8ebf;" vertex="1" parent="1">
          <mxGeometry x="200" y="390" width="40" height="10" as="geometry" />
        </mxCell>
        <mxCell id="cvtWXRdPuCVlEjRCMvrC-19" value="" style="rounded=0;whiteSpace=wrap;html=1;fontSize=13;fontFamily=Times New Roman;fillColor=#dae8fc;strokeColor=#6c8ebf;" vertex="1" parent="1">
          <mxGeometry x="220" y="430" width="40" height="10" as="geometry" />
        </mxCell>
        <mxCell id="cvtWXRdPuCVlEjRCMvrC-20" value="" style="rounded=0;whiteSpace=wrap;html=1;fontSize=13;fontFamily=Times New Roman;fillColor=#dae8fc;strokeColor=#6c8ebf;" vertex="1" parent="1">
          <mxGeometry x="240" y="470" width="40" height="10" as="geometry" />
        </mxCell>
        <mxCell id="cvtWXRdPuCVlEjRCMvrC-22" value="" style="endArrow=classic;html=1;rounded=0;exitX=1;exitY=1;exitDx=0;exitDy=0;fontSize=13;fontFamily=Times New Roman;" edge="1" parent="1" source="cvtWXRdPuCVlEjRCMvrC-18">
          <mxGeometry width="50" height="50" relative="1" as="geometry">
            <mxPoint x="280" y="440" as="sourcePoint" />
            <mxPoint x="300" y="340" as="targetPoint" />
          </mxGeometry>
        </mxCell>
        <mxCell id="cvtWXRdPuCVlEjRCMvrC-23" value="" style="endArrow=classic;html=1;rounded=0;exitX=1;exitY=0.75;exitDx=0;exitDy=0;fontSize=13;fontFamily=Times New Roman;" edge="1" parent="1" source="cvtWXRdPuCVlEjRCMvrC-19">
          <mxGeometry width="50" height="50" relative="1" as="geometry">
            <mxPoint x="290" y="450" as="sourcePoint" />
            <mxPoint x="320" y="340" as="targetPoint" />
          </mxGeometry>
        </mxCell>
        <mxCell id="cvtWXRdPuCVlEjRCMvrC-24" value="" style="endArrow=classic;html=1;rounded=0;exitX=1;exitY=0.75;exitDx=0;exitDy=0;fontSize=13;fontFamily=Times New Roman;" edge="1" parent="1" source="cvtWXRdPuCVlEjRCMvrC-20">
          <mxGeometry width="50" height="50" relative="1" as="geometry">
            <mxPoint x="310" y="470" as="sourcePoint" />
            <mxPoint x="340" y="340" as="targetPoint" />
          </mxGeometry>
        </mxCell>
        <mxCell id="cvtWXRdPuCVlEjRCMvrC-25" value="Transaction&lt;div style=&quot;font-size: 13px;&quot;&gt;Proposals&lt;/div&gt;" style="text;html=1;align=center;verticalAlign=middle;resizable=0;points=[];autosize=1;strokeColor=none;fillColor=none;fontSize=13;fontFamily=Times New Roman;" vertex="1" parent="1">
          <mxGeometry x="140" y="300" width="80" height="40" as="geometry" />
        </mxCell>
        <mxCell id="cvtWXRdPuCVlEjRCMvrC-26" value="Endorsement&lt;div style=&quot;font-size: 13px;&quot;&gt;Response&lt;/div&gt;" style="text;html=1;align=center;verticalAlign=middle;resizable=0;points=[];autosize=1;strokeColor=none;fillColor=none;fontSize=13;fontFamily=Times New Roman;" vertex="1" parent="1">
          <mxGeometry x="271" y="301" width="90" height="40" as="geometry" />
        </mxCell>
        <mxCell id="cvtWXRdPuCVlEjRCMvrC-27" value="" style="endArrow=classic;html=1;rounded=0;dashed=1;fontSize=13;fontFamily=Times New Roman;" edge="1" parent="1">
          <mxGeometry width="50" height="50" relative="1" as="geometry">
            <mxPoint x="399" y="341" as="sourcePoint" />
            <mxPoint x="419" y="401" as="targetPoint" />
          </mxGeometry>
        </mxCell>
        <mxCell id="cvtWXRdPuCVlEjRCMvrC-29" value="" style="endArrow=classic;html=1;rounded=0;entryX=0;entryY=1;entryDx=0;entryDy=0;fontSize=13;fontFamily=Times New Roman;" edge="1" parent="1" target="cvtWXRdPuCVlEjRCMvrC-28">
          <mxGeometry width="50" height="50" relative="1" as="geometry">
            <mxPoint x="419" y="401" as="sourcePoint" />
            <mxPoint x="480" y="510" as="targetPoint" />
          </mxGeometry>
        </mxCell>
        <mxCell id="cvtWXRdPuCVlEjRCMvrC-31" value="" style="endArrow=classic;html=1;rounded=0;fontSize=13;fontFamily=Times New Roman;" edge="1" parent="1">
          <mxGeometry width="50" height="50" relative="1" as="geometry">
            <mxPoint x="499" y="540" as="sourcePoint" />
            <mxPoint x="539" y="480" as="targetPoint" />
          </mxGeometry>
        </mxCell>
        <mxCell id="cvtWXRdPuCVlEjRCMvrC-32" value="" style="endArrow=classic;html=1;rounded=0;exitX=0.588;exitY=0.01;exitDx=0;exitDy=0;exitPerimeter=0;fontSize=13;fontFamily=Times New Roman;" edge="1" parent="1">
          <mxGeometry width="50" height="50" relative="1" as="geometry">
            <mxPoint x="518.24" y="540.4" as="sourcePoint" />
            <mxPoint x="590" y="440" as="targetPoint" />
          </mxGeometry>
        </mxCell>
        <mxCell id="cvtWXRdPuCVlEjRCMvrC-33" value="" style="endArrow=classic;html=1;rounded=0;fontSize=13;fontFamily=Times New Roman;" edge="1" parent="1">
          <mxGeometry width="50" height="50" relative="1" as="geometry">
            <mxPoint x="539" y="540" as="sourcePoint" />
            <mxPoint x="640" y="399" as="targetPoint" />
          </mxGeometry>
        </mxCell>
        <mxCell id="cvtWXRdPuCVlEjRCMvrC-34" value="" style="endArrow=classic;html=1;rounded=0;dashed=1;fontSize=13;fontFamily=Times New Roman;" edge="1" parent="1">
          <mxGeometry width="50" height="50" relative="1" as="geometry">
            <mxPoint x="640" y="400" as="sourcePoint" />
            <mxPoint x="680" y="340" as="targetPoint" />
          </mxGeometry>
        </mxCell>
        <mxCell id="cvtWXRdPuCVlEjRCMvrC-35" value="" style="rounded=0;whiteSpace=wrap;html=1;fontSize=13;fontFamily=Times New Roman;fillColor=#f8cecc;strokeColor=#b85450;" vertex="1" parent="1">
          <mxGeometry x="540" y="470" width="20" height="10" as="geometry" />
        </mxCell>
        <mxCell id="cvtWXRdPuCVlEjRCMvrC-36" value="" style="rounded=0;whiteSpace=wrap;html=1;fontSize=13;fontFamily=Times New Roman;fillColor=#f8cecc;strokeColor=#b85450;" vertex="1" parent="1">
          <mxGeometry x="590" y="430" width="20" height="10" as="geometry" />
        </mxCell>
        <mxCell id="cvtWXRdPuCVlEjRCMvrC-39" value="" style="rounded=0;whiteSpace=wrap;html=1;fontSize=13;fontFamily=Times New Roman;fillColor=#f8cecc;strokeColor=#b85450;" vertex="1" parent="1">
          <mxGeometry x="640" y="390" width="30" height="10" as="geometry" />
        </mxCell>
        <mxCell id="cvtWXRdPuCVlEjRCMvrC-28" value="" style="rounded=0;whiteSpace=wrap;html=1;fontSize=13;fontFamily=Times New Roman;fillColor=#d5e8d4;strokeColor=#82b366;" vertex="1" parent="1">
          <mxGeometry x="459" y="530" width="40" height="10" as="geometry" />
        </mxCell>
        <mxCell id="cvtWXRdPuCVlEjRCMvrC-42" value="" style="endArrow=classic;html=1;rounded=0;fontSize=13;fontFamily=Times New Roman;" edge="1" parent="1">
          <mxGeometry width="50" height="50" relative="1" as="geometry">
            <mxPoint x="160" y="614" as="sourcePoint" />
            <mxPoint x="760" y="614" as="targetPoint" />
          </mxGeometry>
        </mxCell>
        <mxCell id="cvtWXRdPuCVlEjRCMvrC-44" value="" style="endArrow=classic;html=1;rounded=0;exitX=0.5;exitY=1;exitDx=0;exitDy=0;fontSize=13;fontFamily=Times New Roman;" edge="1" parent="1">
          <mxGeometry width="50" height="50" relative="1" as="geometry">
            <mxPoint x="458" y="580" as="sourcePoint" />
            <mxPoint x="481" y="615" as="targetPoint" />
          </mxGeometry>
        </mxCell>
        <mxCell id="cvtWXRdPuCVlEjRCMvrC-45" value="Orders" style="text;html=1;align=center;verticalAlign=middle;resizable=0;points=[];autosize=1;strokeColor=none;fillColor=none;fontSize=13;fontFamily=Times New Roman;" vertex="1" parent="1">
          <mxGeometry x="81" y="543" width="60" height="30" as="geometry" />
        </mxCell>
        <mxCell id="cvtWXRdPuCVlEjRCMvrC-46" value="Commiting&lt;div style=&quot;font-size: 13px;&quot;&gt;Peer-4(CP1)&lt;/div&gt;" style="text;html=1;align=center;verticalAlign=middle;resizable=0;points=[];autosize=1;strokeColor=none;fillColor=none;fontSize=13;fontFamily=Times New Roman;" vertex="1" parent="1">
          <mxGeometry x="65" y="593" width="90" height="40" as="geometry" />
        </mxCell>
        <mxCell id="cvtWXRdPuCVlEjRCMvrC-47" value="Block&lt;div style=&quot;font-size: 13px;&quot;&gt;#1&lt;/div&gt;" style="whiteSpace=wrap;html=1;aspect=fixed;fontFamily=Times New Roman;fontSize=13;fillColor=#B3B3B3;" vertex="1" parent="1">
          <mxGeometry x="796" y="330" width="50" height="50" as="geometry" />
        </mxCell>
        <mxCell id="cvtWXRdPuCVlEjRCMvrC-48" value="Block&lt;div style=&quot;font-size: 13px;&quot;&gt;#2&lt;/div&gt;" style="whiteSpace=wrap;html=1;aspect=fixed;strokeColor=default;align=center;verticalAlign=middle;fontFamily=Times New Roman;fontSize=13;fontColor=default;fillColor=#B3B3B3;" vertex="1" parent="1">
          <mxGeometry x="796" y="410" width="50" height="50" as="geometry" />
        </mxCell>
        <mxCell id="cvtWXRdPuCVlEjRCMvrC-49" value="Block&lt;div style=&quot;font-size: 13px;&quot;&gt;#3&lt;/div&gt;" style="whiteSpace=wrap;html=1;aspect=fixed;strokeColor=default;align=center;verticalAlign=middle;fontFamily=Times New Roman;fontSize=13;fontColor=default;fillColor=#B3B3B3;" vertex="1" parent="1">
          <mxGeometry x="796" y="490" width="50" height="50" as="geometry" />
        </mxCell>
        <mxCell id="cvtWXRdPuCVlEjRCMvrC-50" value="Block&lt;div style=&quot;font-size: 13px;&quot;&gt;#n&lt;/div&gt;" style="whiteSpace=wrap;html=1;aspect=fixed;fontFamily=Times New Roman;fontSize=13;strokeColor=default;align=center;verticalAlign=middle;fontColor=default;fillColor=#B3B3B3;" vertex="1" parent="1">
          <mxGeometry x="796" y="570.5" width="50" height="50" as="geometry" />
        </mxCell>
        <mxCell id="cvtWXRdPuCVlEjRCMvrC-53" value="" style="endArrow=classic;html=1;rounded=0;entryX=0.5;entryY=1;entryDx=0;entryDy=0;exitX=0.5;exitY=0;exitDx=0;exitDy=0;fontFamily=Times New Roman;fontSize=13;" edge="1" parent="1" source="cvtWXRdPuCVlEjRCMvrC-48" target="cvtWXRdPuCVlEjRCMvrC-47">
          <mxGeometry width="50" height="50" relative="1" as="geometry">
            <mxPoint x="916" y="410" as="sourcePoint" />
            <mxPoint x="966" y="360" as="targetPoint" />
          </mxGeometry>
        </mxCell>
        <mxCell id="cvtWXRdPuCVlEjRCMvrC-54" value="" style="endArrow=classic;html=1;rounded=0;entryX=0.5;entryY=1;entryDx=0;entryDy=0;exitX=0.5;exitY=0;exitDx=0;exitDy=0;fontFamily=Times New Roman;fontSize=13;" edge="1" parent="1" source="cvtWXRdPuCVlEjRCMvrC-49" target="cvtWXRdPuCVlEjRCMvrC-48">
          <mxGeometry width="50" height="50" relative="1" as="geometry">
            <mxPoint x="1006" y="500" as="sourcePoint" />
            <mxPoint x="1056" y="450" as="targetPoint" />
          </mxGeometry>
        </mxCell>
        <mxCell id="cvtWXRdPuCVlEjRCMvrC-55" value="" style="endArrow=classic;html=1;rounded=0;entryX=0.5;entryY=1;entryDx=0;entryDy=0;dashed=1;fontFamily=Times New Roman;fontSize=13;" edge="1" parent="1" source="cvtWXRdPuCVlEjRCMvrC-50" target="cvtWXRdPuCVlEjRCMvrC-49">
          <mxGeometry width="50" height="50" relative="1" as="geometry">
            <mxPoint x="946" y="570" as="sourcePoint" />
            <mxPoint x="996" y="520" as="targetPoint" />
          </mxGeometry>
        </mxCell>
        <mxCell id="cvtWXRdPuCVlEjRCMvrC-56" value="Endorsement" style="text;html=1;align=center;verticalAlign=middle;resizable=0;points=[];autosize=1;strokeColor=none;fillColor=none;fontFamily=Times New Roman;fontSize=13;" vertex="1" parent="1">
          <mxGeometry x="215" y="488" width="90" height="30" as="geometry" />
        </mxCell>
        <mxCell id="cvtWXRdPuCVlEjRCMvrC-57" value="Broadcast" style="text;html=1;align=center;verticalAlign=middle;resizable=0;points=[];autosize=1;strokeColor=none;fillColor=none;fontFamily=Times New Roman;fontSize=13;" vertex="1" parent="1">
          <mxGeometry x="370" y="308" width="80" height="30" as="geometry" />
        </mxCell>
        <mxCell id="cvtWXRdPuCVlEjRCMvrC-58" value="Ordering" style="text;html=1;align=center;verticalAlign=middle;resizable=0;points=[];autosize=1;strokeColor=none;fillColor=none;fontFamily=Times New Roman;fontSize=13;" vertex="1" parent="1">
          <mxGeometry x="445" y="498" width="70" height="30" as="geometry" />
        </mxCell>
        <mxCell id="cvtWXRdPuCVlEjRCMvrC-59" value="Verify" style="text;html=1;align=center;verticalAlign=middle;resizable=0;points=[];autosize=1;strokeColor=none;fillColor=none;fontFamily=Times New Roman;fontSize=13;" vertex="1" parent="1">
          <mxGeometry x="655" y="366" width="60" height="30" as="geometry" />
        </mxCell>
      </root>
    </mxGraphModel>
  </diagram>
</mxfile>
